<svg width="40" height="40" viewBox="0 0 40 40" fill="none" xmlns="http://www.w3.org/2000/svg">
<path fill-rule="evenodd" clip-rule="evenodd" d="M12 12V10C12 8.4087 12.6321 6.88258 13.7574 5.75736C14.8826 4.63214 16.4087 4 18 4H22C23.5913 4 25.1174 4.63214 26.2426 5.75736C27.3679 6.88258 28 8.4087 28 10V12H32C33.0609 12 34.0783 12.4214 34.8284 13.1716C35.5786 13.9217 36 14.9391 36 16V23.14C30.8792 25.0375 25.461 26.006 20 26C14.539 26.0061 9.12073 25.0375 4 23.14V16C4 14.9391 4.42143 13.9217 5.17157 13.1716C5.92172 12.4214 6.93913 12 8 12H12ZM16 10C16 9.46957 16.2107 8.96086 16.5858 8.58579C16.9609 8.21071 17.4696 8 18 8H22C22.5304 8 23.0391 8.21071 23.4142 8.58579C23.7893 8.96086 24 9.46957 24 10V12H16V10ZM18 20C18 19.4696 18.2107 18.9609 18.5858 18.5858C18.9609 18.2107 19.4696 18 20 18H20.02C20.5504 18 21.0591 18.2107 21.4342 18.5858C21.8093 18.9609 22.02 19.4696 22.02 20C22.02 20.5304 21.8093 21.0391 21.4342 21.4142C21.0591 21.7893 20.5504 22 20.02 22H20C19.4696 22 18.9609 21.7893 18.5858 21.4142C18.2107 21.0391 18 20.5304 18 20Z" fill="black" fill-opacity="0.9"/>
<path d="M4 27.384V32C4 33.0609 4.42143 34.0783 5.17157 34.8285C5.92172 35.5786 6.93913 36 8 36H32C33.0609 36 34.0783 35.5786 34.8284 34.8285C35.5786 34.0783 36 33.0609 36 32V27.384C30.8447 29.1216 25.4402 30.0052 20 30C14.408 30 9.026 29.08 4 27.384Z" fill="black" fill-opacity="0.9"/>
</svg>
