<svg width="13" height="16" viewBox="0 0 13 16" fill="none" xmlns="http://www.w3.org/2000/svg">
<path d="M3.18685 4.82L2.94685 9.8L3.16685 14.5L0.48685 15L0.72685 10.14L0.506849 5.32L3.18685 4.82ZM0.366849 1.9C0.366849 1.44667 0.540183 1.04667 0.88685 0.699999C1.23352 0.339999 1.63352 0.159999 2.08685 0.159999C2.54018 0.159999 2.88685 0.286666 3.12685 0.539999C3.36685 0.779999 3.48685 1.14667 3.48685 1.64C3.48685 2.13333 3.31352 2.56 2.96685 2.92C2.63352 3.26667 2.24018 3.44 1.78685 3.44C1.34685 3.44 1.00018 3.29333 0.746849 3C0.493516 2.70667 0.366849 2.34 0.366849 1.9ZM10.1897 9.94C10.1897 9.02 10.1097 8.40667 9.94966 8.1C9.78966 7.79333 9.41633 7.64 8.82966 7.64C8.243 7.64 7.57633 7.87333 6.82966 8.34V9.8L7.04966 14.5L4.36966 15L4.60966 10.14C4.55633 8.35333 4.40966 6.75333 4.16966 5.34L6.58966 4.82C6.683 5.59333 6.74966 6.34667 6.78966 7.08C6.98966 6.81333 7.21633 6.55333 7.46966 6.3C7.723 6.03333 8.123 5.74 8.66966 5.42C9.21633 5.08667 9.78966 4.92 10.3897 4.92C11.003 4.92 11.5163 5.16 11.9297 5.64C12.343 6.10667 12.5497 6.74667 12.5497 7.56L12.4297 9.8L12.6497 14.6L9.94966 15.1L10.1897 9.94Z" fill="black" fill-opacity="0.8"/>
</svg>
