<svg width="14" height="14" viewBox="0 0 14 14" fill="none" xmlns="http://www.w3.org/2000/svg">
<path d="M1.40234 4.11879L7.00024 6.91739L12.5981 4.11879C12.5774 3.7621 12.4211 3.42683 12.1612 3.18165C11.9013 2.93646 11.5575 2.79992 11.2002 2.79999H2.80024C2.44295 2.79992 2.09916 2.93646 1.83927 3.18165C1.57938 3.42683 1.42307 3.7621 1.40234 4.11879Z" fill="black"/>
<path d="M12.5999 5.68262L6.9999 8.48262L1.3999 5.68262V9.80002C1.3999 10.1713 1.5474 10.5274 1.80995 10.79C2.0725 11.0525 2.4286 11.2 2.7999 11.2H11.1999C11.5712 11.2 11.9273 11.0525 12.1899 10.79C12.4524 10.5274 12.5999 10.1713 12.5999 9.80002V5.68262Z" fill="black"/>
</svg>
