<svg width="18" height="18" viewBox="0 0 18 18" fill="none" xmlns="http://www.w3.org/2000/svg">
<path d="M1.80273 5.29558L9.00003 8.89377L16.1973 5.29558C16.1707 4.83697 15.9697 4.40591 15.6356 4.09068C15.3014 3.77544 14.8594 3.59989 14.4 3.59998H3.60003C3.14066 3.59989 2.69864 3.77544 2.36449 4.09068C2.03035 4.40591 1.82938 4.83697 1.80273 5.29558Z" fill="black" fill-opacity="0.8"/>
<path d="M16.2 7.30621L9.00005 10.9062L1.80005 7.30621V12.6C1.80005 13.0774 1.98969 13.5352 2.32726 13.8728C2.66482 14.2104 3.12266 14.4 3.60005 14.4H14.4C14.8774 14.4 15.3353 14.2104 15.6728 13.8728C16.0104 13.5352 16.2 13.0774 16.2 12.6V7.30621Z" fill="black" fill-opacity="0.8"/>
</svg>
