<svg width="14" height="14" viewBox="0 0 14 14" fill="none" xmlns="http://www.w3.org/2000/svg">
<path d="M12.2128 7.6258C12.3289 7.5676 12.4265 7.47825 12.4948 7.36773C12.563 7.25721 12.5991 7.12988 12.5991 7C12.5991 6.87011 12.563 6.74279 12.4948 6.63227C12.4265 6.52175 12.3289 6.4324 12.2128 6.3742L2.41277 1.4742C2.29126 1.4134 2.15468 1.38928 2.01969 1.40478C1.8847 1.42028 1.75714 1.47472 1.65258 1.56148C1.54801 1.64824 1.47095 1.76356 1.4308 1.89336C1.39065 2.02317 1.38914 2.16185 1.42647 2.2925L2.42677 5.7925C2.46861 5.93878 2.55697 6.06745 2.67848 6.15902C2.79998 6.25059 2.94802 6.30008 3.10017 6.3L6.29987 6.3C6.48552 6.3 6.66357 6.37375 6.79484 6.50502C6.92612 6.6363 6.99987 6.81435 6.99987 7C6.99987 7.18565 6.92612 7.3637 6.79484 7.49497C6.66357 7.62625 6.48552 7.7 6.29987 7.7L3.10017 7.7C2.94802 7.69991 2.79998 7.7494 2.67848 7.84098C2.55697 7.93255 2.46861 8.06122 2.42677 8.2075L1.42717 11.7075C1.38977 11.8381 1.39118 11.9768 1.43124 12.1066C1.47129 12.2364 1.54826 12.3518 1.65274 12.4386C1.75723 12.5254 1.88473 12.5799 2.01968 12.5956C2.15463 12.6112 2.29122 12.5872 2.41277 12.5265L12.2128 7.6265L12.2128 7.6258Z" fill="black" fill-opacity="0.8"/>
</svg>
