<svg width="18" height="18" viewBox="0 0 18 18" fill="none" xmlns="http://www.w3.org/2000/svg">
<path d="M15.7024 9.80462C15.8516 9.7298 15.9772 9.61491 16.0649 9.47282C16.1526 9.33072 16.1991 9.16702 16.1991 9.00002C16.1991 8.83303 16.1526 8.66933 16.0649 8.52723C15.9772 8.38514 15.8517 8.27025 15.7024 8.19543L3.10236 1.89542C2.94613 1.81725 2.77053 1.78624 2.59697 1.80617C2.42342 1.82609 2.25941 1.8961 2.12497 2.00765C1.99052 2.11919 1.89145 2.26745 1.83982 2.43435C1.7882 2.60124 1.78627 2.77955 1.83426 2.94752L3.12036 7.44752C3.17415 7.6356 3.28776 7.80103 3.44398 7.91877C3.60021 8.0365 3.79054 8.10013 3.98616 8.10002L8.10006 8.10002C8.33875 8.10002 8.56767 8.19485 8.73645 8.36363C8.90524 8.53241 9.00006 8.76133 9.00006 9.00002C9.00006 9.23872 8.90524 9.46764 8.73645 9.63642C8.56767 9.8052 8.33875 9.90002 8.10006 9.90002L3.98616 9.90002C3.79054 9.89992 3.60021 9.96355 3.44398 10.0813C3.28776 10.199 3.17415 10.3644 3.12036 10.5525L1.83516 15.0525C1.78707 15.2204 1.78889 15.3987 1.84039 15.5656C1.89189 15.7325 1.99084 15.8809 2.12519 15.9925C2.25953 16.1041 2.42345 16.1742 2.59696 16.1943C2.77047 16.2144 2.94608 16.1835 3.10236 16.1055L15.7024 9.80552L15.7024 9.80462Z" fill="black" fill-opacity="0.8"/>
</svg>
