<svg width="18" height="18" viewBox="0 0 18 18" fill="none" xmlns="http://www.w3.org/2000/svg">
<path d="M1.80005 2.69999C1.80005 2.46129 1.89487 2.23237 2.06365 2.06359C2.23244 1.89481 2.46135 1.79999 2.70005 1.79999H4.63775C4.85078 1.80009 5.05688 1.87575 5.21937 2.01352C5.38186 2.15129 5.49021 2.34224 5.52515 2.55239L6.19115 6.54389C6.22297 6.73398 6.19293 6.92927 6.10544 7.10101C6.01795 7.27275 5.87763 7.41187 5.70515 7.49789L4.31195 8.19359C4.81155 9.43167 5.5556 10.5563 6.49965 11.5004C7.44369 12.4444 8.56836 13.1885 9.80645 13.6881L10.503 12.2949C10.589 12.1226 10.728 11.9824 10.8995 11.8949C11.0711 11.8074 11.2662 11.7773 11.4561 11.8089L15.4476 12.4749C15.6578 12.5098 15.8487 12.6182 15.9865 12.7807C16.1243 12.9432 16.1999 13.1493 16.2 13.3623V15.3C16.2 15.5387 16.1052 15.7676 15.9364 15.9364C15.7677 16.1052 15.5387 16.2 15.3 16.2H13.5C7.03805 16.2 1.80005 10.962 1.80005 4.49999V2.69999Z" fill="black" fill-opacity="0.8"/>
</svg>
