<svg width="40" height="40" viewBox="0 0 40 40" fill="none" xmlns="http://www.w3.org/2000/svg">
<path d="M20.788 4.16001C20.539 4.05327 20.2709 3.99823 20 3.99823C19.7291 3.99823 19.461 4.05327 19.212 4.16001L5.21201 10.16C4.85123 10.3137 4.5436 10.5701 4.32737 10.8972C4.11113 11.2244 3.99585 11.6079 3.99585 12C3.99585 12.3922 4.11113 12.7757 4.32737 13.1028C4.5436 13.43 4.85123 13.6863 5.21201 13.84L10.5 16.102C10.6963 15.88 10.9395 15.7044 11.212 15.588L19.212 12.16C19.4541 12.0521 19.7152 11.9934 19.9802 11.9873C20.2452 11.9812 20.5087 12.0278 20.7555 12.1245C21.0023 12.2211 21.2274 12.3659 21.4178 12.5503C21.6081 12.7347 21.76 12.9551 21.8644 13.1987C21.9688 13.4423 22.0238 13.7042 22.0261 13.9693C22.0285 14.2343 21.9781 14.4971 21.8779 14.7425C21.7778 14.9879 21.6298 15.211 21.4427 15.3987C21.2556 15.5864 21.0331 15.7351 20.788 15.836L15.334 18.176L19.214 19.838C19.4627 19.9445 19.7305 19.9994 20.001 19.9994C20.2716 19.9994 20.5393 19.9445 20.788 19.838L34.788 13.838C35.1476 13.6837 35.454 13.4274 35.6694 13.1007C35.8847 12.774 35.9995 12.3913 35.9995 12C35.9995 11.6087 35.8847 11.226 35.6694 10.8993C35.454 10.5726 35.1476 10.3163 34.788 10.162L20.788 4.16201V4.16001ZM6.62001 18.794L10 20.24V28.444C9.30752 28.2865 8.60628 28.1703 7.90001 28.096C7.4443 28.0481 7.01886 27.8452 6.69484 27.5212C6.37083 27.1972 6.16791 26.7717 6.12001 26.316C5.85699 23.7978 6.02609 21.2532 6.62001 18.792V18.794ZM18.6 33.146C17.248 31.8194 15.6957 30.7139 14 29.87V21.956L17.636 23.516C18.383 23.8362 19.1873 24.0013 20 24.0013C20.8128 24.0013 21.617 23.8362 22.364 23.516L33.38 18.794C33.9774 21.2547 34.1466 23.7999 33.88 26.318C33.8321 26.7737 33.6292 27.1992 33.3052 27.5232C32.9812 27.8472 32.5557 28.0501 32.1 28.098C28.0651 28.5221 24.2931 30.3016 21.4 33.146C21.0262 33.5125 20.5235 33.7177 20 33.7177C19.4765 33.7177 18.9739 33.5125 18.6 33.146ZM12 36C12.5304 36 13.0392 35.7893 13.4142 35.4142C13.7893 35.0392 14 34.5304 14 34V29.87C12.728 29.2381 11.3852 28.76 10 28.446V34C10 34.5304 10.2107 35.0392 10.5858 35.4142C10.9609 35.7893 11.4696 36 12 36Z" fill="black" fill-opacity="0.9"/>
</svg>
