<svg width="40" height="40" viewBox="0 0 40 40" fill="none" xmlns="http://www.w3.org/2000/svg">
<path fill-rule="evenodd" clip-rule="evenodd" d="M8 4C6.93913 4 5.92172 4.42143 5.17157 5.17157C4.42143 5.92172 4 6.93913 4 8V30C4 31.5913 4.63214 33.1174 5.75736 34.2426C6.88258 35.3679 8.4087 36 10 36C11.5913 36 13.1174 35.3679 14.2426 34.2426C15.3679 33.1174 16 31.5913 16 30V8C16 6.93913 15.5786 5.92172 14.8284 5.17157C14.0783 4.42143 13.0609 4 12 4H8ZM10 32C10.5304 32 11.0391 31.7893 11.4142 31.4142C11.7893 31.0391 12 30.5304 12 30C12 29.4696 11.7893 28.9609 11.4142 28.5858C11.0391 28.2107 10.5304 28 10 28C9.46957 28 8.96086 28.2107 8.58579 28.5858C8.21071 28.9609 8 29.4696 8 30C8 30.5304 8.21071 31.0391 8.58579 31.4142C8.96086 31.7893 9.46957 32 10 32ZM20 28.486L29.8 18.686C30.5499 17.9359 30.9711 16.9187 30.9711 15.858C30.9711 14.7973 30.5499 13.7801 29.8 13.03L26.97 10.2C26.2199 9.45012 25.2027 9.02885 24.142 9.02885C23.0813 9.02885 22.0641 9.45012 21.314 10.2L20 11.514V28.486ZM32 36H18.142L30.142 24H32C33.0609 24 34.0783 24.4214 34.8284 25.1716C35.5786 25.9217 36 26.9391 36 28V32C36 33.0609 35.5786 34.0783 34.8284 34.8284C34.0783 35.5786 33.0609 36 32 36Z" fill="black" fill-opacity="0.9"/>
</svg>
