<svg width="14" height="14" viewBox="0 0 14 14" fill="none" xmlns="http://www.w3.org/2000/svg">
<path fill-rule="evenodd" clip-rule="evenodd" d="M3.53496 2.83503C4.45394 1.91606 5.70034 1.39978 6.99996 1.39978C8.29959 1.39978 9.54599 1.91606 10.465 2.83503C11.3839 3.75401 11.9002 5.0004 11.9002 6.30003C11.9002 7.59966 11.3839 8.84606 10.465 9.76503L6.99996 13.23L3.53496 9.76503C3.0799 9.31002 2.71893 8.76982 2.47265 8.17529C2.22637 7.58077 2.09961 6.94355 2.09961 6.30003C2.09961 5.65651 2.22637 5.01929 2.47265 4.42477C2.71893 3.83024 3.0799 3.29004 3.53496 2.83503ZM6.99996 7.70003C7.37127 7.70003 7.72736 7.55253 7.98991 7.28998C8.25246 7.02743 8.39996 6.67133 8.39996 6.30003C8.39996 5.92873 8.25246 5.57263 7.98991 5.31008C7.72736 5.04753 7.37127 4.90003 6.99996 4.90003C6.62866 4.90003 6.27256 5.04753 6.01001 5.31008C5.74746 5.57263 5.59996 5.92873 5.59996 6.30003C5.59996 6.67133 5.74746 7.02743 6.01001 7.28998C6.27256 7.55253 6.62866 7.70003 6.99996 7.70003Z" fill="black" fill-opacity="0.8"/>
</svg>
