<svg width="18" height="18" viewBox="0 0 18 18" fill="none" xmlns="http://www.w3.org/2000/svg">
<path fill-rule="evenodd" clip-rule="evenodd" d="M4.54504 3.645C5.72658 2.46346 7.32909 1.79968 9.00004 1.79968C10.671 1.79968 12.2735 2.46346 13.455 3.645C14.6366 4.82654 15.3004 6.42905 15.3004 8.1C15.3004 9.77095 14.6366 11.3735 13.455 12.555L9.00004 17.01L4.54504 12.555C3.95996 11.97 3.49585 11.2755 3.17921 10.5111C2.86256 9.74666 2.69958 8.92739 2.69958 8.1C2.69958 7.27262 2.86256 6.45334 3.17921 5.68895C3.49585 4.92456 3.95996 4.23002 4.54504 3.645ZM9.00004 9.9C9.47743 9.9 9.93527 9.71036 10.2728 9.3728C10.6104 9.03523 10.8 8.57739 10.8 8.1C10.8 7.62261 10.6104 7.16478 10.2728 6.82721C9.93527 6.48965 9.47743 6.3 9.00004 6.3C8.52265 6.3 8.06481 6.48965 7.72725 6.82721C7.38968 7.16478 7.20004 7.62261 7.20004 8.1C7.20004 8.57739 7.38968 9.03523 7.72725 9.3728C8.06481 9.71036 8.52265 9.9 9.00004 9.9Z" fill="black" fill-opacity="0.8"/>
</svg>
