<svg width="14" height="14" viewBox="0 0 14 14" fill="none" xmlns="http://www.w3.org/2000/svg">
<path d="M1.3999 2.10002C1.3999 1.91437 1.47365 1.73633 1.60493 1.60505C1.7362 1.47377 1.91425 1.40002 2.0999 1.40002H3.607C3.7727 1.4001 3.93299 1.45895 4.05937 1.56611C4.18575 1.67326 4.27003 1.82177 4.2972 1.98522L4.8152 5.08972C4.83995 5.23758 4.81658 5.38947 4.74854 5.52305C4.68049 5.65662 4.57136 5.76482 4.4372 5.83172L3.3536 6.37282C3.74218 7.33578 4.32089 8.21052 5.05514 8.94478C5.7894 9.67904 6.66415 10.2577 7.6271 10.6463L8.1689 9.56272C8.23577 9.4287 8.34386 9.31966 8.47729 9.25162C8.61072 9.18358 8.76246 9.16013 8.9102 9.18472L12.0147 9.70272C12.1782 9.7299 12.3267 9.81417 12.4338 9.94055C12.541 10.0669 12.5998 10.2272 12.5999 10.3929V11.9C12.5999 12.0857 12.5262 12.2637 12.3949 12.395C12.2636 12.5263 12.0856 12.6 11.8999 12.6H10.4999C5.4739 12.6 1.3999 8.52602 1.3999 3.50002V2.10002Z" fill="black" fill-opacity="0.8"/>
</svg>
