<svg width="14" height="14" viewBox="0 0 14 14" fill="none" xmlns="http://www.w3.org/2000/svg">
<path fill-rule="evenodd" clip-rule="evenodd" d="M12.0198 2.12127C10.9477 3.75472 9.09982 4.83339 7 4.83339C4.90018 4.83339 3.0523 3.75472 1.98024 2.12127C3.25212 0.812849 5.03113 0 7 0C8.96887 0 10.7479 0.812851 12.0198 2.12127ZM1.3137 2.9167C0.486936 4.06599 0 5.47613 0 7C0 8.52387 0.486937 9.93401 1.3137 11.0833C2.58441 9.31688 4.65788 8.16661 7 8.16661C9.34212 8.16661 11.4156 9.31688 12.6863 11.0833C13.5131 9.93401 14 8.52387 14 7C14 5.47613 13.5131 4.066 12.6863 2.9167C11.4156 4.68313 9.34212 5.83339 7 5.83339C4.65787 5.83339 2.58441 4.68312 1.3137 2.9167ZM7 9.16661C9.09982 9.16661 10.9477 10.2453 12.0198 11.8787C10.7479 13.1872 8.96887 14 7 14C5.03114 14 3.25212 13.1872 1.98024 11.8787C3.0523 10.2453 4.90018 9.16661 7 9.16661Z" fill="black" fill-opacity="0.8"/>
</svg>
