<svg width="15" height="15" viewBox="0 0 15 15" fill="none" xmlns="http://www.w3.org/2000/svg">
<path fill-rule="evenodd" clip-rule="evenodd" d="M4.80118 0.500238C3.75856 0.902497 2.8284 1.531 2.07088 2.32556C3.2336 4.08751 5.23104 5.25008 7.5 5.25008C7.50521 5.25008 7.51042 5.25007 7.51563 5.25006C7.08327 3.23644 6.08577 1.5804 4.80118 0.500238ZM5.92248 14.8338C6.43111 14.9427 6.95886 15 7.5 15C9.63584 15 11.5632 14.1072 12.9291 12.6744C11.9436 11.1811 10.3586 10.1183 8.51675 9.82898C8.1066 11.8345 7.17911 13.5812 5.92248 14.8338ZM7.51563 9.74994C7.51042 9.74993 7.50521 9.74992 7.5 9.74992C5.23104 9.74992 3.2336 10.9125 2.07088 12.6744C2.8284 13.469 3.75856 14.0975 4.80118 14.4998C6.08577 13.4196 7.08327 11.7636 7.51563 9.74994ZM7.67917 8.75202C7.61962 8.75063 7.55989 8.74992 7.5 8.74992C4.99058 8.74992 2.769 9.98236 1.40753 11.875C0.521716 10.6436 0 9.13271 0 7.5C0 5.86729 0.521715 4.35643 1.40753 3.12504C2.769 5.01765 4.99058 6.25008 7.5 6.25008C7.55989 6.25008 7.61962 6.24937 7.67917 6.24798C7.72574 6.65403 7.75 7.07188 7.75 7.5C7.75 7.92812 7.72574 8.34597 7.67917 8.75202ZM8.67382 8.84125C10.6947 9.15889 12.4477 10.2835 13.5925 11.875C14.4783 10.6436 15 9.13271 15 7.5C15 5.86729 14.4783 4.35643 13.5925 3.12504C12.4477 4.71647 10.6947 5.84111 8.67382 6.15875C8.72402 6.59679 8.75 7.0446 8.75 7.5C8.75 7.9554 8.72402 8.40321 8.67382 8.84125ZM8.51675 5.17102C10.3586 4.88169 11.9436 3.81891 12.9291 2.32556C11.5632 0.892798 9.63584 0 7.5 0C6.95886 0 6.43111 0.0573103 5.92248 0.166192C7.17911 1.41881 8.1066 3.16551 8.51675 5.17102Z" fill="black" fill-opacity="0.8"/>
</svg>
